PathFileType	4	(X/Y/Z)	pose_F01_0-80.trc
DataRate	CameraRate	NumFrames	NumMarkers	Units	OrigDataRate	OrigDataStartFrame	OrigNumFrames
30	30	12	21	m	30	26	80
Frame#	Time	CHip			RHip			RKnee			RAnkle			RBigToe			RSmallToe			RHeel			LHip			LKnee			LAnkle			LBigToe			LSmallToe			LHeel			Neck			Nose			RShoulder			RElbow			RWrist			LShoulder			LElbow			LWrist			
		X1	Y1	Z1	X2	Y2	Z2	X3	Y3	Z3	X4	Y4	Z4	X5	Y5	Z5	X6	Y6	Z6	X7	Y7	Z7	X8	Y8	Z8	X9	Y9	Z9	X10	Y10	Z10	X11	Y11	Z11	X12	Y12	Z12	X13	Y13	Z13	X14	Y14	Z14	X15	Y15	Z15	X16	Y16	Z16	X17	Y17	Z17	X18	Y18	Z18	X19	Y19	Z19	X20	Y20	Z20	X21	Y21	Z21	
26	0.8666666666666667	-0.2235710161778951	1.8361157796084515	-0.5412131276825185	-0.2392225424213188	1.834108483659533	-0.47565109751704193	-0.23946338639346698	1.6976258087529748	-0.48759597066853694													-0.2098658552065603	1.8379535789386248	-0.599062178827552	-0.207880463179592	1.7065027355668705	-0.5672373931879208	-0.20523495004446612	1.5764589698758422	-0.566191799171633	-0.21860209052972537	1.5431755450456686	-0.6225080215526967	-0.2077720989502445	1.5537023471451008	-0.634632938355696				-0.21852128040278446	1.992681683121248	-0.5566481566913212	-0.22530736194200326	2.0465987920801685	-0.6006999860143337	-0.2414367983660904	1.986260010425537	-0.4800193733806551	-0.27057976247837	1.9180514062048784	-0.44701276735065665	-0.257131718487209	1.8848266147333401	-0.5532979033092115	-0.19453572561237836	1.9999743094080655	-0.6369210913626178	-1.276009136778294	1.869930142777893	0.39220891239520256	-0.20147739170291845	1.9783541690094422	-0.6566660097529718
27	0.9	-0.22238899234062667	1.8376695098743483	-0.5470636634070589	-0.2391072042518127	1.8355957738433009	-0.484809760705812	-0.23946338639346698	1.6976258087529748	-0.48759597066853694													-0.20751340140506508	1.8375979255122277	-0.6017670777406161	-0.20771270423795724	1.7086121869373778	-0.5674216632574295	-0.20523495004446612	1.5764589698758422	-0.566191799171633	-0.21751123163457417	1.5455383796341897	-0.6195294191094862	-0.20684836500059942	1.5539616591035792	-0.6313711871986794				-0.21633142000607222	1.9917978476673979	-0.5584804563584537	-0.2253996051940247	2.047688005357842	-0.6011571270120397	-0.23940278087079897	1.9889665765182492	-0.4825549923681695	-0.2700468753720275	1.924796511778787	-0.4473008576458809	-0.2589871695753046	1.9079558627109834	-0.543857664196889	-0.19011652572143384	1.996747671597719	-0.6402847429581675	-1.2745833324742681	1.8646376205643684	0.3933771220761537	-0.18325412399860844	1.9454085999615602	-0.705805041116783
28	0.9333333333333333	-0.22338313216915096	1.8378546013805062	-0.5503660566526787	-0.2410541015348849	1.834614228322385	-0.4826414197469591	-0.23946338639346698	1.6976258087529748	-0.48759597066853694													-0.20638952368991118	1.838236309345787	-0.6073066068122609	-0.21064202477024768	1.7093530096862135	-0.5772962984377696	-0.20523495004446612	1.5764589698758422	-0.566191799171633	-0.2176914937766889	1.5434272320174867	-0.6193462998695859	-0.20693033193691604	1.5541075798187443	-0.6314467291388054				-0.21669459057722534	1.989626601610853	-0.5500444855278382	-0.22644861396191177	2.0483257688639536	-0.5957256299780631	-0.24028850614895772	1.9850128753040246	-0.46756997204188827	-0.27143327255160277	1.927802189340585	-0.4427933902201431	-0.263594515642164	1.9394365939251608	-0.526590590667996	-0.19044437358150051	1.9963317266340992	-0.6413165645581757	-0.16257904308712595	1.9512350291985705	-0.7240384430450363	-0.16503085629429842	1.9124630309136785	-0.7549440724805941
29	0.9666666666666667	-0.22424362854084096	1.841936400809031	-0.5456481475120053	-0.23884990767955194	1.8384272397210837	-0.47649082988932867	-0.23946338639346698	1.6976258087529748	-0.48759597066853694													-0.20830605488726603	1.8426839188223907	-0.6056074344038419	-0.21030065952600807	1.709889003990095	-0.577788031278946	-0.20523495004446612	1.5764589698758422	-0.566191799171633	-0.2187068939112162	1.5454355679236265	-0.6140322823043173	-0.2066858480278673	1.55536037899929	-0.6318591816509592				-0.21575170223060494	1.9918486574792227	-0.547242110556794	-0.22447112302543795	2.0483780975516193	-0.5979634422951773	-1.842295919837519	1.894239985158025	1.3412805611305636	-0.26425033647871127	1.9240775191524229	-0.42799492251866383	-0.26820186170902344	1.9709173251393381	-0.509323517139103	-0.19270819973510114	1.9969102673599806	-0.6395060688605856	-1.2810958195262407	1.850963263657447	0.4231907642768846	-0.1468075885899884	1.8795174618657966	-0.8040831038444053
30	1.0	-0.22549038967341023	1.837802786225777	-0.548118625595593	-0.23826894836254794	1.8360933349515773	-0.47273140886312254	-0.23946338639346698	1.6976258087529748	-0.48759597066853694													-0.211855843757781	1.8384243066790107	-0.6058651816923935	-0.21065432563841113	1.7093817411980385	-0.57725105280397	-0.20523495004446612	1.5764589698758422	-0.566191799171633	-0.21859573504953744	1.5455847759604027	-0.6230801018265512	-0.20781816566423053	1.5562438866293005	-0.6351839214743722				-0.21835244056718786	1.987367021617537	-0.5640273403976822	-0.22617925918544174	2.055786455122037	-0.6057520601699781	-0.23545789231826073	1.9847154350989402	-0.4607313858995361	-0.24879857896400115	1.9095655032336554	-0.3946635480006165	-0.26527919302734954	1.9384466401762745	-0.4328709434148829	-0.1964760784301264	1.9902215248047552	-0.6616845786048567	-0.16729587045083866	1.9319359771202473	-0.7061537162876396	-0.14243334419119322	1.8724981617435217	-0.7638550809165114
31	1.0333333333333334	-0.22549356026284934	1.837774468748945	-0.5481467730020745	-0.23928756974172402	1.8368394557101444	-0.4760355448149958	-0.23946338639346698	1.6976258087529748	-0.48759597066853694													-0.21095853913428855	1.8377632898211758	-0.6027433757318112	-0.20982180536431635	1.706756877132755	-0.5736646421440789	-0.20523495004446612	1.5764589698758422	-0.566191799171633	-0.21827380354762174	1.5461201560122126	-0.6150033591364465	-0.20579463095483955	1.555628876084779	-0.6286914378935283				-0.21521417597144057	1.986432782156865	-0.5718183166539201	-0.22196323995391173	2.0536879180851715	-0.6094214428878824	-0.2363613538595731	1.987086902059916	-0.4811237022350062	-0.2500526799096925	1.9194474796617318	-0.393454715086995	-0.25425661786678233	1.8901058579646257	-0.39415963673417803	-0.18927383193439945	1.9893243870949284	-0.6655121439251682	-0.16707511791458585	1.9233137397377653	-0.6945525965948156	-0.13805909979239803	1.8654788616212468	-0.7236270579886176
32	1.0666666666666667	-0.22343729007532467	1.8377952555837371	-0.5504917873146583	-0.2412444761477404	1.8363912907831024	-0.482812675261174	-0.23946338639346698	1.6976258087529748	-0.48759597066853694													-0.20667720458477792	1.837901349761854	-0.60731211255886	-0.21074056504300195	1.7069631432771057	-0.5768945486255392	-0.20523495004446612	1.5764589698758422	-0.566191799171633	-0.2163898338670471	1.5474250625200263	-0.6168653385306052	-0.2060233707653894	1.5572466571386958	-0.6284219147751781				-0.21712393645888983	1.9853692474998215	-0.5691974987098781	-0.2187190868992198	2.0568913981792156	-0.6178557106906386	-1.767135560772077	1.8920227865741752	1.2089398042110846	-0.24447819538578255	1.9100592974032193	-0.4219757224973319	-0.24323404270621518	1.8417650757529767	-0.35544833005347315	-0.18562995557719195	1.9880560751053986	-0.6527147981187873	-0.1674388763786605	1.9203026303230022	-0.6849005523289348	-0.14849836767929403	1.8567891267515464	-0.7159185718878945
33	1.1	-0.2217455685226497	1.8404122142299402	-0.5529135576377763	-0.23671353362056735	1.8392813936429508	-0.4928440070005477	-0.23946338639346698	1.6976258087529748	-0.48759597066853694													-0.20268496908168615	1.8423578026271779	-0.6120634278775634	-0.210765150101823	1.7102414770525822	-0.5772088424881358	-0.20523495004446612	1.5764589698758422	-0.566191799171633	-0.21663499132063432	1.5459016998722868	-0.6162234649464836	-0.20625174792124884	1.5584129393750263	-0.6279984001085143				-0.21419374440463212	1.9869427867016083	-0.5685836408811993	-0.21525629923781056	2.055051372646367	-0.6243906756202716	-0.23729900607402427	1.985326434422136	-0.48401619075184404	-0.24252996698734136	1.9117608982215228	-0.424638134326895	-0.2327862341454274	1.845779482360354	-0.3722269940278933	-0.1848489026711149	1.987634989199571	-0.6494721731311193	-0.1661650597432194	1.92967634263411	-0.6906987031762362	-0.16053969495874434	1.8941734576947404	-0.7229933682813919
34	1.1333333333333333	-0.21922690387521301	1.8382364343526565	-0.5550894309390888	-0.235140517962918	1.836484766986232	-0.49817898891283324	-0.23946338639346698	1.6976258087529748	-0.48759597066853694													-0.2000949999701541	1.8404854274046714	-0.6142092963271324	-0.20758160494145936	1.7089383244029865	-0.5762856978928097	-0.20523495004446612	1.5764589698758422	-0.566191799171633	-0.21749882726222677	1.5484206735788484	-0.620164575954567	-0.2043867281385305	1.5630355962531872	-0.6302638857265225				-0.21418286122930788	1.9871275876565602	-0.568582891846623	-0.21333851491250164	2.0500659096961065	-0.625996782921968	-0.238312048899022	1.98549341164957	-0.48715766053828197	-0.24829334565182748	1.909923799276707	-0.4262798790371535	-0.2517274684738172	1.8382576971974312	-0.3579733375475717	-0.1838513283620806	1.9884870519722138	-0.6463774247793417	-1.292706910192346	1.8484232105695537	0.4759024098889212	-0.1725810222381947	1.9315577886379345	-0.7300681646748892
35	1.1666666666666667	-0.21938233303572738	1.840803789788886	-0.5550753364184015	-0.2354561521008954	1.8403728040429133	-0.498452072862445	-0.23946338639346698	1.6976258087529748	-0.48759597066853694													-0.19934270907013465	1.8418475883330852	-0.6111624842242351	-0.20683784272472533	1.7107471765047961	-0.572950643161481	-0.20239795475622632	1.5807626773588166	-0.5654129412829985	-0.2155834180523187	1.5467197350408328	-0.6218106670098063	-0.2052475104392064	1.5601137892380774	-0.6332767071524369				-0.21506847411328114	1.98921839731804	-0.572250049198327	-0.2134471195721984	2.047126248672656	-0.6255994200044325	-0.2364227133512673	1.989517841255374	-0.49031362529808326	-0.2561116712030729	1.9156371616748071	-0.41871563938436784	-0.2758814194223771	1.8609946251982628	-0.4080394188322994	-0.18185560506016954	1.989703691060501	-0.6490190208458788	-1.239417340160644	1.8524341181703439	0.3865843133448271	-0.184622349517645	1.9689421195811285	-0.7371429610683866
36	1.2	-0.21770795405385754	1.8406339373076772	-0.5524057507232404	-0.23159145686805763	1.8389089202914524	-0.48897207898863027	-0.23946338639346698	1.6976258087529748	-0.48759597066853694													-0.1985594588160113	1.841291680588387	-0.6117120613641855	-0.20421573021225523	1.7101725038909303	-0.5756176488973012	-0.20232937093785242	1.5811085611268203	-0.5658594775784868	-0.21851273577177122	1.5459311580344341	-0.6228338213739968	-0.20717978076526206	1.5586377719590383	-0.6313659929424459				-0.21127491937507628	1.9942898777871003	-0.5691318597362184	-0.21667872183920558	2.048722823555835	-0.6184826641962522	-0.23743180184354656	1.9918398087601676	-0.48549003300401133	-0.2615514931087914	1.9096002786350594	-0.4081668094603863	-0.27218187740088223	1.859750660678221	-0.3918774631536654	-0.17967658132045589	1.996050175336618	-0.6524049232421852	-1.2708324053331606	1.8518641504913136	0.4376542105827097	-1.2463282852901492	1.8740499016321992	0.35210939065520463
37	1.2333333333333334	-0.2201061784516205	1.8390737450204078	-0.5497108814198381	-0.23296736137912857	1.8369528040360346	-0.4830457087013786	-0.23946338639346698	1.6976258087529748	-0.48759597066853694													-0.201234382586377	1.8379149801393522	-0.6088019985289121	-0.2030768493387106	1.7089572299626599	-0.5724318176989087	-0.20226078711947854	1.5814544448948242	-0.5663060138739752	-0.2152608963554364	1.5453710147184114	-0.6217898757383777	-0.20479859566944938	1.5576153300568873	-0.6335813981637705				-0.2143606250398964	1.9908484764742025	-0.5606941329919118	-0.21996784822367318	2.048499507895679	-0.6109720541273749	-0.23432526589019356	1.989613335490718	-0.4750002602468674	-0.2649623401235327	1.9242375298182341	-0.43070249549456247	-0.26848233537938737	1.8585066961581793	-0.3757155074750314	-0.1890079697080674	1.9926084230895225	-0.6456775387459576	-1.3026677365893977	1.8484519777872483	0.4930177825860647	-0.167080858778987	1.9309056136107123	-0.7186422552437642
